<svg width="20" height="20" viewBox="0 0 20 20" fill="none" xmlns="http://www.w3.org/2000/svg">
<circle cx="10.0002" cy="10.0002" r="6.66667" fill="white"/>
<path d="M10 16.6668C13.6819 16.6668 16.6667 13.6821 16.6667 10.0002C16.6667 6.31826 13.6819 3.3335 10 3.3335V16.6668Z" fill="#CED5DE"/>
<path d="M9.99984 18.3332C5.39734 18.3332 1.6665 14.6023 1.6665 9.99984C1.6665 5.39734 5.39734 1.6665 9.99984 1.6665C14.6023 1.6665 18.3332 5.39734 18.3332 9.99984C18.3332 14.6023 14.6023 18.3332 9.99984 18.3332ZM9.99984 16.6665C11.7679 16.6665 13.4636 15.9641 14.7139 14.7139C15.9641 13.4636 16.6665 11.7679 16.6665 9.99984C16.6665 8.23173 15.9641 6.53603 14.7139 5.28579C13.4636 4.03555 11.7679 3.33317 9.99984 3.33317C8.23173 3.33317 6.53603 4.03555 5.28579 5.28579C4.03555 6.53603 3.33317 8.23173 3.33317 9.99984C3.33317 11.7679 4.03555 13.4636 5.28579 14.7139C6.53603 15.9641 8.23173 16.6665 9.99984 16.6665ZM10.8332 9.99984H13.3332C13.7934 9.99984 14.1665 10.3729 14.1665 10.8332C14.1665 11.2934 13.7934 11.6665 13.3332 11.6665H9.1665V6.6665C9.1665 6.20627 9.5396 5.83317 9.99984 5.83317C10.4601 5.83317 10.8332 6.20627 10.8332 6.6665V9.99984Z" fill="#242A35"/>
</svg>
