<svg width="20" height="20" viewBox="0 0 20 20" fill="none" xmlns="http://www.w3.org/2000/svg">
<rect x="2" y="2" width="16" height="16" rx="3" fill="white"/>
<path d="M10 2H15C16.6569 2 18 3.34315 18 5V15C18 16.6569 16.6569 18 15 18H10V2Z" fill="#CED5DE"/>
<rect x="2.75" y="2.75" width="14.5" height="14.5" rx="2.25" stroke="#242A35" stroke-width="1.5"/>
<path d="M4.5 13.25C4.5 12.9739 4.72386 12.75 5 12.75L5.5 12.75C5.77614 12.75 6 12.9739 6 13.25L6 14.75C6 15.0261 5.77614 15.25 5.5 15.25L5 15.25C4.72386 15.25 4.5 15.0261 4.5 14.75L4.5 13.25Z" fill="#242A35"/>
<path d="M4.5 9.25C4.5 8.97386 4.72386 8.75 5 8.75L5.5 8.75C5.77614 8.75 6 8.97386 6 9.25L6 10.75C6 11.0261 5.77614 11.25 5.5 11.25L5 11.25C4.72386 11.25 4.5 11.0261 4.5 10.75L4.5 9.25Z" fill="#242A35"/>
<path d="M4.5 5.25C4.5 4.97386 4.72386 4.75 5 4.75L5.5 4.75C5.77614 4.75 6 4.97386 6 5.25L6 6.75C6 7.02614 5.77614 7.25 5.5 7.25L5 7.25C4.72386 7.25 4.5 7.02614 4.5 6.75L4.5 5.25Z" fill="#242A35"/>
<path d="M14 13.25C14 12.9739 14.2239 12.75 14.5 12.75L15 12.75C15.2761 12.75 15.5 12.9739 15.5 13.25L15.5 14.75C15.5 15.0261 15.2761 15.25 15 15.25L14.5 15.25C14.2239 15.25 14 15.0261 14 14.75L14 13.25Z" fill="#242A35"/>
<path d="M14 9.25C14 8.97386 14.2239 8.75 14.5 8.75L15 8.75C15.2761 8.75 15.5 8.97386 15.5 9.25L15.5 10.75C15.5 11.0261 15.2761 11.25 15 11.25L14.5 11.25C14.2239 11.25 14 11.0261 14 10.75L14 9.25Z" fill="#242A35"/>
<path d="M14 5.25C14 4.97386 14.2239 4.75 14.5 4.75L15 4.75C15.2761 4.75 15.5 4.97386 15.5 5.25L15.5 6.75C15.5 7.02614 15.2761 7.25 15 7.25L14.5 7.25C14.2239 7.25 14 7.02614 14 6.75L14 5.25Z" fill="#242A35"/>
</svg>
