<svg width="20" height="20" viewBox="0 0 20 20" fill="none" xmlns="http://www.w3.org/2000/svg">
<g clip-path="url(#clip0_357_295)">
<path d="M19.8415 10.8166C20.5449 10.4674 20.5448 9.46978 19.8415 9.12062L19.5985 9L17.7825 9.9686L11.3116 13.1809C10.9167 13.3768 10.4523 13.3768 10.0574 13.1809L3.58543 9.9686L1.77054 9L1.52752 9.12062C0.824153 9.46979 0.824167 10.4674 1.52752 10.8166L9.30416 14.6765C10.1732 15.1078 11.1958 15.1078 12.0648 14.6765L19.8415 10.8166Z" fill="#242A35"/>
<path d="M19.8415 13.8166C20.5449 13.4674 20.5448 12.4698 19.8415 12.1206L19.5985 12L17.7825 12.9686L11.3116 16.1809C10.9167 16.3768 10.4523 16.3768 10.0574 16.1809L3.58543 12.9686L1.77054 12L1.52752 12.1206C0.824153 12.4698 0.824167 13.4674 1.52752 13.8166L9.30416 17.6765C10.1732 18.1078 11.1958 18.1078 12.0648 17.6765L19.8415 13.8166Z" fill="#242A35"/>
<path d="M2.17888 6.91056L9.10557 3.44721C9.66863 3.16569 10.3314 3.16569 10.8944 3.44721L17.8211 6.91056C17.8948 6.94741 17.8948 7.05259 17.8211 7.08944L10.8944 10.5528C10.3314 10.8343 9.66863 10.8343 9.10557 10.5528L2.17889 7.08944C2.10518 7.05259 2.10518 6.94741 2.17888 6.91056Z" fill="white"/>
<path d="M10 7V3L17.8211 6.91056C17.8948 6.94741 17.8948 7.05259 17.8211 7.08944L10 11V7Z" fill="#CED5DE"/>
<path d="M2.17888 6.91056L9.10557 3.44721C9.66863 3.16569 10.3314 3.16569 10.8944 3.44721L17.8211 6.91056C17.8948 6.94741 17.8948 7.05259 17.8211 7.08944L10.8944 10.5528C10.3314 10.8343 9.66863 10.8343 9.10557 10.5528L2.17889 7.08944C2.10518 7.05259 2.10518 6.94741 2.17888 6.91056Z" stroke="#242A35" stroke-width="1.5"/>
</g>
<defs>
<clipPath id="clip0_357_295">
<rect width="20" height="20" fill="white"/>
</clipPath>
</defs>
</svg>
