<svg width="599" height="121" viewBox="0 0 599 121" fill="none" xmlns="http://www.w3.org/2000/svg">
<path d="M47.4463 69C66.7112 69 85.872 71.8261 104.316 77.3887L106.124 77.9346C128.344 84.6357 151.032 89.6713 174 93H110.812C102.328 93 93.9002 91.614 85.8633 88.8965L55.5029 78.6299C37.6088 72.5793 18.8865 69.3313 0 69H47.4463ZM88.9355 45C110.862 45 132.671 48.1933 153.677 54.4785C174.863 60.8178 196.487 65.5928 218.373 68.7646L220 69H161.674C149.97 69 138.344 67.0878 127.257 63.3389L101.503 54.6299C83.6088 48.5793 64.8865 45.3313 46 45H88.9355ZM139.922 21C163.846 21 187.644 24.4837 210.564 31.3418C229.829 37.106 249.491 41.4479 269.392 44.332L274 45H219.813C205.368 45 191.02 42.6397 177.336 38.0127L155.503 30.6299C137.609 24.5793 118.887 21.3313 100 21H139.922Z" fill="#3FC0DB"/>
<path d="M331.814 42.4545L330.145 52.3977H297.901L299.57 42.4545H331.814ZM298.504 97L308.483 37.3054C309.051 33.6359 310.294 30.5819 312.212 28.1435C314.153 25.705 316.509 23.8821 319.278 22.6747C322.072 21.4673 325.043 20.8636 328.192 20.8636C330.441 20.8636 332.394 21.0412 334.051 21.3963C335.708 21.7514 336.916 22.071 337.673 22.3551L333.518 32.2983C332.974 32.1326 332.311 31.9669 331.53 31.8011C330.772 31.6117 329.884 31.517 328.866 31.517C326.475 31.517 324.688 32.0971 323.504 33.2571C322.321 34.3935 321.539 36.027 321.161 38.1577L311.395 97H298.504ZM330.853 97L339.944 42.4545H352.799L343.708 97H330.853ZM348.253 34.642C346.194 34.642 344.489 33.9555 343.14 32.5824C341.79 31.2093 341.198 29.5639 341.364 27.6463C341.53 25.7287 342.394 24.0833 343.956 22.7102C345.542 21.3371 347.354 20.6506 349.39 20.6506C351.449 20.6506 353.142 21.3371 354.468 22.7102C355.817 24.0833 356.409 25.7287 356.243 27.6463C356.101 29.5639 355.237 31.2093 353.651 32.5824C352.088 33.9555 350.289 34.642 348.253 34.642ZM354.927 97L364.018 42.4545H376.482L374.955 51.5455H375.523C377.015 48.3968 379.122 45.9702 381.844 44.2656C384.591 42.5374 387.526 41.6733 390.651 41.6733C391.385 41.6733 392.178 41.7088 393.031 41.7798C393.883 41.8272 394.617 41.91 395.232 42.0284L393.244 53.8537C392.699 53.6643 391.847 53.4986 390.687 53.3565C389.55 53.1908 388.426 53.108 387.313 53.108C384.969 53.108 382.791 53.6169 380.779 54.6349C378.79 55.6293 377.11 57.0142 375.737 58.7898C374.363 60.5653 373.476 62.6132 373.073 64.9332L367.782 97H354.927ZM442.424 56.8722L430.599 58.1506C430.481 56.9432 430.114 55.8187 429.498 54.777C428.883 53.7353 427.959 52.9067 426.728 52.2912C425.521 51.652 423.958 51.3324 422.041 51.3324C419.247 51.3324 416.797 51.9598 414.69 53.2145C412.583 54.4692 411.387 56.0791 411.103 58.044C410.843 59.5118 411.198 60.7074 412.169 61.6307C413.139 62.554 414.939 63.3352 417.566 63.9744L426.586 65.9631C431.558 67.0758 435.133 68.875 437.311 71.3608C439.512 73.8466 440.282 77.1018 439.619 81.1264C439.051 84.4882 437.583 87.4474 435.216 90.0043C432.848 92.5374 429.818 94.5142 426.125 95.9347C422.455 97.3551 418.383 98.0653 413.909 98.0653C407.114 98.0653 401.882 96.6567 398.213 93.8395C394.567 90.9986 392.756 87.0923 392.779 82.1207L405.422 80.9134C405.564 83.3755 406.428 85.2339 408.014 86.4886C409.6 87.7197 411.802 88.3471 414.619 88.3707C417.791 88.3944 420.467 87.7315 422.645 86.3821C424.846 85.009 426.089 83.34 426.373 81.375C426.61 79.9072 426.243 78.7116 425.272 77.7884C424.325 76.8651 422.633 76.1312 420.194 75.5866L411.245 73.6335C406.179 72.5208 402.569 70.6387 400.414 67.9872C398.284 65.312 397.562 61.9384 398.248 57.8665C398.816 54.5521 400.201 51.6993 402.403 49.3082C404.628 46.8935 407.481 45.035 410.961 43.733C414.441 42.4072 418.336 41.7443 422.645 41.7443C429.131 41.7443 434.02 43.1056 437.311 45.8281C440.601 48.5507 442.306 52.232 442.424 56.8722ZM481.884 42.4545L480.215 52.3977H448.894L450.527 42.4545H481.884ZM460.4 29.3864H473.255L464.732 80.5938C464.471 82.322 464.519 83.6477 464.874 84.571C465.253 85.4706 465.856 86.0862 466.685 86.4176C467.537 86.7491 468.496 86.9148 469.561 86.9148C470.343 86.9148 471.077 86.8556 471.763 86.7372C472.45 86.5952 472.994 86.4886 473.397 86.4176L473.965 96.4673C473.184 96.7041 472.13 96.9645 470.804 97.2486C469.502 97.5327 467.94 97.6984 466.117 97.7457C462.85 97.8168 460.009 97.3196 457.594 96.2543C455.203 95.1652 453.451 93.4962 452.338 91.2472C451.249 88.9744 451.001 86.1335 451.593 82.7244L460.4 29.3864ZM504.964 98.0653C499.495 98.0653 494.973 96.929 491.398 94.6562C487.824 92.3598 485.314 89.1165 483.87 84.9261C482.45 80.7121 482.213 75.7524 483.16 70.0469C484.083 64.4361 485.965 59.5118 488.806 55.2741C491.647 51.0128 495.198 47.6984 499.46 45.331C503.745 42.9399 508.479 41.7443 513.664 41.7443C517.026 41.7443 520.115 42.2888 522.933 43.3778C525.75 44.4432 528.129 46.1004 530.07 48.3494C532.012 50.5985 533.349 53.4631 534.083 56.9432C534.817 60.3996 534.781 64.5189 533.977 69.3011L533.373 73.2429H488.629L490.013 64.5781H522.4C522.826 62.116 522.684 59.9261 521.974 58.0085C521.263 56.0672 520.08 54.5402 518.423 53.4276C516.765 52.3149 514.694 51.7585 512.208 51.7585C509.675 51.7585 507.308 52.4096 505.106 53.7116C502.928 54.9901 501.093 56.6473 499.602 58.6832C498.11 60.7192 497.163 62.8617 496.761 65.1108L495.305 73.4205C494.784 76.8295 494.902 79.6113 495.66 81.7656C496.417 83.92 497.743 85.5062 499.637 86.5241C501.531 87.5421 503.922 88.0511 506.81 88.0511C508.704 88.0511 510.456 87.7907 512.066 87.2699C513.676 86.7491 515.108 85.9678 516.363 84.9261C517.641 83.8608 518.707 82.5587 519.559 81.0199L531.313 82.3693C530.011 85.5417 528.105 88.3116 525.596 90.679C523.086 93.0227 520.08 94.8456 516.576 96.1477C513.096 97.4261 509.225 98.0653 504.964 98.0653ZM534.96 117.455L547.531 42.4545H560.173L558.717 51.4744H559.462C560.315 50.1487 561.463 48.7401 562.907 47.2486C564.375 45.7334 566.233 44.4432 568.482 43.3778C570.731 42.2888 573.466 41.7443 576.685 41.7443C580.876 41.7443 584.486 42.8215 587.516 44.9759C590.547 47.1065 592.713 50.267 594.015 54.4574C595.341 58.6241 595.506 63.7377 594.512 69.7983C593.518 75.7879 591.683 80.8778 589.008 85.0682C586.333 89.2585 583.125 92.4545 579.384 94.6562C575.644 96.858 571.631 97.9588 567.346 97.9588C564.221 97.9588 561.7 97.438 559.782 96.3963C557.888 95.3546 556.456 94.0999 555.485 92.6321C554.514 91.1406 553.792 89.732 553.319 88.4062H552.751L547.921 117.455H534.96ZM555.592 69.7273C555.023 73.2547 555.012 76.3442 555.556 78.9957C556.124 81.6473 557.249 83.7187 558.93 85.2102C560.611 86.678 562.812 87.4119 565.535 87.4119C568.376 87.4119 570.862 86.6544 572.992 85.1392C575.147 83.6004 576.934 81.5052 578.354 78.8537C579.799 76.1785 580.817 73.1364 581.408 69.7273C581.953 66.3419 581.953 63.3352 581.408 60.7074C580.864 58.0795 579.763 56.0199 578.106 54.5284C576.449 53.0369 574.2 52.2912 571.359 52.2912C568.589 52.2912 566.115 53.0133 563.937 54.4574C561.782 55.9015 559.995 57.9257 558.575 60.5298C557.154 63.134 556.16 66.1998 555.592 69.7273Z" fill="black"/>
</svg>
