<svg width="28" height="28" viewBox="0 0 28 28" fill="none" xmlns="http://www.w3.org/2000/svg">
<g clip-path="url(#clip0_684_14742)">
<path d="M0 18.6648H28V28H0V18.6648Z" fill="#1EB53A"/>
<path d="M0 1.52588e-05H28V9.33516H0V1.52588e-05Z" fill="#0099B5"/>
<path d="M0 8.95781H28V19.0422H0V8.95781Z" fill="#CE1126"/>
<path d="M0 9.51562H28V18.4844H0V9.51562Z" fill="white"/>
<path d="M11.0758 8.2281C10.8944 8.25844 10.708 8.27422 10.518 8.27422C8.6635 8.27422 7.16016 6.77088 7.16016 4.91642C7.16016 3.06195 8.6635 1.55861 10.518 1.55861C10.708 1.55861 10.8944 1.5744 11.0758 1.60473C9.48681 1.87042 8.2758 3.25199 8.2758 4.91642C8.2758 6.58084 9.48681 7.96242 11.0758 8.2281Z" fill="white"/>
<path d="M15.8129 0.770554L16.0457 1.48713L16.7992 1.48713L16.1896 1.92999L16.4225 2.64657L15.8129 2.2037L15.2034 2.64657L15.4362 1.92999L14.8266 1.48713L15.5801 1.48713L15.8129 0.770554Z" fill="white"/>
<path d="M18.4052 0.770554L18.638 1.48713L19.3915 1.48713L18.7819 1.92999L19.0148 2.64657L18.4052 2.2037L17.7956 2.64657L18.0285 1.92999L17.4189 1.48713L18.1724 1.48713L18.4052 0.770554Z" fill="white"/>
<path d="M20.998 0.770554L21.2308 1.48713L21.9843 1.48713L21.3747 1.92999L21.6075 2.64657L20.998 2.2037L20.3884 2.64657L20.6212 1.92999L20.0117 1.48713L20.7651 1.48713L20.998 0.770554Z" fill="white"/>
<path d="M13.2201 2.84464L13.453 3.56121L14.2064 3.56121L13.5969 4.00408L13.8297 4.72065L13.2201 4.27778L12.6106 4.72065L12.8434 4.00408L12.2339 3.56121L12.9873 3.56121L13.2201 2.84464Z" fill="white"/>
<path d="M15.8129 2.84464L16.0457 3.56121L16.7992 3.56121L16.1896 4.00408L16.4225 4.72065L15.8129 4.27778L15.2034 4.72065L15.4362 4.00408L14.8266 3.56121L15.5801 3.56121L15.8129 2.84464Z" fill="white"/>
<path d="M18.4052 2.84464L18.638 3.56121L19.3915 3.56121L18.7819 4.00408L19.0148 4.72065L18.4052 4.27778L17.7956 4.72065L18.0285 4.00408L17.4189 3.56121L18.1724 3.56121L18.4052 2.84464Z" fill="white"/>
<path d="M20.998 2.84464L21.2308 3.56121L21.9843 3.56121L21.3747 4.00408L21.6075 4.72065L20.998 4.27778L20.3884 4.72065L20.6212 4.00408L20.0117 3.56121L20.7651 3.56121L20.998 2.84464Z" fill="white"/>
<path d="M10.6276 4.9187L10.8604 5.63528L11.6139 5.63528L11.0043 6.07814L11.2372 6.79472L10.6276 6.35185L10.0181 6.79472L10.2509 6.07814L9.64133 5.63528L10.3948 5.63528L10.6276 4.9187Z" fill="white"/>
<path d="M13.2201 4.9187L13.453 5.63528L14.2064 5.63528L13.5969 6.07814L13.8297 6.79472L13.2201 6.35185L12.6106 6.79472L12.8434 6.07814L12.2339 5.63528L12.9873 5.63528L13.2201 4.9187Z" fill="white"/>
<path d="M15.8129 4.9187L16.0457 5.63528L16.7992 5.63528L16.1896 6.07814L16.4225 6.79472L15.8129 6.35185L15.2034 6.79472L15.4362 6.07814L14.8266 5.63528L15.5801 5.63528L15.8129 4.9187Z" fill="white"/>
<path d="M18.4052 4.9187L18.638 5.63528L19.3915 5.63528L18.7819 6.07814L19.0148 6.79472L18.4052 6.35185L17.7956 6.79472L18.0285 6.07814L17.4189 5.63528L18.1724 5.63528L18.4052 4.9187Z" fill="white"/>
<path d="M20.998 4.9187L21.2308 5.63528L21.9843 5.63528L21.3747 6.07814L21.6075 6.79472L20.998 6.35185L20.3884 6.79472L20.6212 6.07814L20.0117 5.63528L20.7651 5.63528L20.998 4.9187Z" fill="white"/>
</g>
<defs>
<clipPath id="clip0_684_14742">
<rect y="1.52588e-05" width="28" height="28" rx="14" fill="white"/>
</clipPath>
</defs>
</svg>
