<svg width="28" height="28" viewBox="0 0 28 28" fill="none" xmlns="http://www.w3.org/2000/svg">
<g clip-path="url(#clip0_684_14681)">
<path d="M0 0H28V28H0" fill="#BD3D44"/>
<path d="M0 3.17188H28H0ZM0 7.49219H28H0ZM0 11.8125H28H0ZM0 16.1328H28H0ZM0 20.4531H28H0ZM0 24.7734H28H0Z" fill="black"/>
<path d="M0 3.17188H28M0 7.49219H28M0 11.8125H28M0 16.1328H28M0 20.4531H28M0 24.7734H28" stroke="white" stroke-width="2.59259"/>
<path d="M0 0H21.3281V15.0391H0V0Z" fill="#192F5D"/>
<path d="M-0.388744 -0.136871L-0.155915 0.579704L0.597537 0.579704L-0.0120184 1.02257L0.220811 1.73915L-0.388744 1.29628L-0.998299 1.73915L-0.76547 1.02257L-1.37503 0.579704L-0.621574 0.579704L-0.388744 -0.136871Z" fill="white"/>
<path d="M2.72234 -0.136871L2.95517 0.579704L3.70862 0.579704L3.09907 1.02257L3.33189 1.73915L2.72234 1.29628L2.11278 1.73915L2.34561 1.02257L1.73606 0.579704L2.48951 0.579704L2.72234 -0.136871Z" fill="white"/>
<path d="M5.83342 -0.136871L6.06625 0.579704L6.8197 0.579704L6.21015 1.02257L6.44298 1.73915L5.83342 1.29628L5.22387 1.73915L5.4567 1.02257L4.84714 0.579704L5.60059 0.579704L5.83342 -0.136871Z" fill="white"/>
<path d="M8.94451 -0.136871L9.17734 0.579704L9.93079 0.579704L9.32123 1.02257L9.55406 1.73915L8.94451 1.29628L8.33495 1.73915L8.56778 1.02257L7.95823 0.579704L8.71168 0.579704L8.94451 -0.136871Z" fill="white"/>
<path d="M12.0556 -0.136871L12.2884 0.579704L13.0419 0.579704L12.4323 1.02257L12.6651 1.73915L12.0556 1.29628L11.446 1.73915L11.6789 1.02257L11.0693 0.579704L11.8228 0.579704L12.0556 -0.136871Z" fill="white"/>
<path d="M15.1669 -0.136871L15.3997 0.579704L16.1532 0.579704L15.5436 1.02257L15.7765 1.73915L15.1669 1.29628L14.5574 1.73915L14.7902 1.02257L14.1806 0.579704L14.9341 0.579704L15.1669 -0.136871Z" fill="white"/>
<path d="M18.278 -0.136871L18.5108 0.579704L19.2643 0.579704L18.6547 1.02257L18.8876 1.73915L18.278 1.29628L17.6684 1.73915L17.9013 1.02257L17.2917 0.579704L18.0452 0.579704L18.278 -0.136871Z" fill="white"/>
<path d="M21.3893 -0.136871L21.6222 0.579704L22.3756 0.579704L21.7661 1.02257L21.9989 1.73915L21.3893 1.29628L20.7798 1.73915L21.0126 1.02257L20.4031 0.579704L21.1565 0.579704L21.3893 -0.136871Z" fill="white"/>
<path d="M1.16668 2.45572L1.39951 3.17229L2.15296 3.17229L1.5434 3.61516L1.77623 4.33174L1.16668 3.88887L0.557121 4.33174L0.78995 3.61516L0.180395 3.17229L0.933846 3.17229L1.16668 2.45572Z" fill="white"/>
<path d="M4.27825 2.45572L4.51108 3.17229L5.26453 3.17229L4.65497 3.61516L4.8878 4.33174L4.27825 3.88887L3.66869 4.33174L3.90152 3.61516L3.29197 3.17229L4.04542 3.17229L4.27825 2.45572Z" fill="white"/>
<path d="M7.38933 2.45572L7.62216 3.17229L8.37561 3.17229L7.76606 3.61516L7.99889 4.33174L7.38933 3.88887L6.77978 4.33174L7.01261 3.61516L6.40305 3.17229L7.1565 3.17229L7.38933 2.45572Z" fill="white"/>
<path d="M10.5004 2.45572L10.7332 3.17229L11.4867 3.17229L10.8771 3.61516L11.11 4.33174L10.5004 3.88887L9.89086 4.33174L10.1237 3.61516L9.51414 3.17229L10.2676 3.17229L10.5004 2.45572Z" fill="white"/>
<path d="M13.6115 2.45572L13.8443 3.17229L14.5978 3.17229L13.9882 3.61516L14.2211 4.33174L13.6115 3.88887L13.0019 4.33174L13.2348 3.61516L12.6252 3.17229L13.3787 3.17229L13.6115 2.45572Z" fill="white"/>
<path d="M16.7226 2.45572L16.9554 3.17229L17.7089 3.17229L17.0993 3.61516L17.3321 4.33174L16.7226 3.88887L16.113 4.33174L16.3459 3.61516L15.7363 3.17229L16.4898 3.17229L16.7226 2.45572Z" fill="white"/>
<path d="M19.8334 2.45572L20.0663 3.17229L20.8197 3.17229L20.2101 3.61516L20.443 4.33174L19.8334 3.88887L19.2239 4.33174L19.4567 3.61516L18.8471 3.17229L19.6006 3.17229L19.8334 2.45572Z" fill="white"/>
<path d="M-0.388744 5.04832L-0.155915 5.7649L0.597537 5.7649L-0.0120184 6.20777L0.220811 6.92434L-0.388744 6.48147L-0.998299 6.92434L-0.76547 6.20777L-1.37503 5.7649L-0.621574 5.7649L-0.388744 5.04832Z" fill="white"/>
<path d="M2.72234 5.04832L2.95517 5.7649L3.70862 5.7649L3.09907 6.20777L3.33189 6.92434L2.72234 6.48147L2.11278 6.92434L2.34561 6.20777L1.73606 5.7649L2.48951 5.7649L2.72234 5.04832Z" fill="white"/>
<path d="M5.83342 5.04832L6.06625 5.7649L6.8197 5.7649L6.21015 6.20777L6.44298 6.92434L5.83342 6.48147L5.22387 6.92434L5.4567 6.20777L4.84714 5.7649L5.60059 5.7649L5.83342 5.04832Z" fill="white"/>
<path d="M8.94451 5.04832L9.17734 5.7649L9.93079 5.7649L9.32123 6.20777L9.55406 6.92434L8.94451 6.48147L8.33495 6.92434L8.56778 6.20777L7.95823 5.7649L8.71168 5.7649L8.94451 5.04832Z" fill="white"/>
<path d="M12.0556 5.04832L12.2884 5.7649L13.0419 5.7649L12.4323 6.20777L12.6651 6.92434L12.0556 6.48147L11.446 6.92434L11.6789 6.20777L11.0693 5.7649L11.8228 5.7649L12.0556 5.04832Z" fill="white"/>
<path d="M15.1669 5.04832L15.3997 5.7649L16.1532 5.7649L15.5436 6.20777L15.7765 6.92434L15.1669 6.48147L14.5574 6.92434L14.7902 6.20777L14.1806 5.7649L14.9341 5.7649L15.1669 5.04832Z" fill="white"/>
<path d="M18.278 5.04832L18.5108 5.7649L19.2643 5.7649L18.6547 6.20777L18.8876 6.92434L18.278 6.48147L17.6684 6.92434L17.9013 6.20777L17.2917 5.7649L18.0452 5.7649L18.278 5.04832Z" fill="white"/>
<path d="M21.3893 5.04832L21.6222 5.7649L22.3756 5.7649L21.7661 6.20777L21.9989 6.92434L21.3893 6.48147L20.7798 6.92434L21.0126 6.20777L20.4031 5.7649L21.1565 5.7649L21.3893 5.04832Z" fill="white"/>
<path d="M1.16668 7.64091L1.39951 8.35749L2.15296 8.35749L1.5434 8.80036L1.77623 9.51693L1.16668 9.07406L0.557121 9.51693L0.78995 8.80036L0.180395 8.35749L0.933846 8.35749L1.16668 7.64091Z" fill="white"/>
<path d="M4.27825 7.64091L4.51108 8.35749L5.26453 8.35749L4.65497 8.80036L4.8878 9.51693L4.27825 9.07406L3.66869 9.51693L3.90152 8.80036L3.29197 8.35749L4.04542 8.35749L4.27825 7.64091Z" fill="white"/>
<path d="M7.38933 7.64091L7.62216 8.35749L8.37561 8.35749L7.76606 8.80036L7.99889 9.51693L7.38933 9.07406L6.77978 9.51693L7.01261 8.80036L6.40305 8.35749L7.1565 8.35749L7.38933 7.64091Z" fill="white"/>
<path d="M10.5004 7.64091L10.7332 8.35749L11.4867 8.35749L10.8771 8.80036L11.11 9.51693L10.5004 9.07406L9.89086 9.51693L10.1237 8.80036L9.51414 8.35749L10.2676 8.35749L10.5004 7.64091Z" fill="white"/>
<path d="M13.6115 7.64091L13.8443 8.35749L14.5978 8.35749L13.9882 8.80036L14.2211 9.51693L13.6115 9.07406L13.0019 9.51693L13.2348 8.80036L12.6252 8.35749L13.3787 8.35749L13.6115 7.64091Z" fill="white"/>
<path d="M16.7226 7.64091L16.9554 8.35749L17.7089 8.35749L17.0993 8.80036L17.3321 9.51693L16.7226 9.07406L16.113 9.51693L16.3459 8.80036L15.7363 8.35749L16.4898 8.35749L16.7226 7.64091Z" fill="white"/>
<path d="M19.8334 7.64091L20.0663 8.35749L20.8197 8.35749L20.2101 8.80036L20.443 9.51693L19.8334 9.07406L19.2239 9.51693L19.4567 8.80036L18.8471 8.35749L19.6006 8.35749L19.8334 7.64091Z" fill="white"/>
<path d="M-0.388744 10.2335L-0.155915 10.9501L0.597537 10.9501L-0.0120184 11.3929L0.220811 12.1095L-0.388744 11.6667L-0.998299 12.1095L-0.76547 11.3929L-1.37503 10.9501L-0.621574 10.9501L-0.388744 10.2335Z" fill="white"/>
<path d="M2.72234 10.2335L2.95517 10.9501L3.70862 10.9501L3.09907 11.3929L3.33189 12.1095L2.72234 11.6667L2.11278 12.1095L2.34561 11.3929L1.73606 10.9501L2.48951 10.9501L2.72234 10.2335Z" fill="white"/>
<path d="M5.83342 10.2335L6.06625 10.9501L6.8197 10.9501L6.21015 11.3929L6.44298 12.1095L5.83342 11.6667L5.22387 12.1095L5.4567 11.3929L4.84714 10.9501L5.60059 10.9501L5.83342 10.2335Z" fill="white"/>
<path d="M8.94451 10.2335L9.17734 10.9501L9.93079 10.9501L9.32123 11.3929L9.55406 12.1095L8.94451 11.6667L8.33495 12.1095L8.56778 11.3929L7.95823 10.9501L8.71168 10.9501L8.94451 10.2335Z" fill="white"/>
<path d="M12.0556 10.2335L12.2884 10.9501L13.0419 10.9501L12.4323 11.3929L12.6651 12.1095L12.0556 11.6667L11.446 12.1095L11.6789 11.3929L11.0693 10.9501L11.8228 10.9501L12.0556 10.2335Z" fill="white"/>
<path d="M15.1669 10.2335L15.3997 10.9501L16.1532 10.9501L15.5436 11.3929L15.7765 12.1095L15.1669 11.6667L14.5574 12.1095L14.7902 11.3929L14.1806 10.9501L14.9341 10.9501L15.1669 10.2335Z" fill="white"/>
<path d="M18.278 10.2335L18.5108 10.9501L19.2643 10.9501L18.6547 11.3929L18.8876 12.1095L18.278 11.6667L17.6684 12.1095L17.9013 11.3929L17.2917 10.9501L18.0452 10.9501L18.278 10.2335Z" fill="white"/>
<path d="M21.3893 10.2335L21.6222 10.9501L22.3756 10.9501L21.7661 11.3929L21.9989 12.1095L21.3893 11.6667L20.7798 12.1095L21.0126 11.3929L20.4031 10.9501L21.1565 10.9501L21.3893 10.2335Z" fill="white"/>
<path d="M1.16668 12.8261L1.39951 13.5427L2.15296 13.5427L1.5434 13.9855L1.77623 14.7021L1.16668 14.2592L0.557121 14.7021L0.78995 13.9855L0.180395 13.5427L0.933846 13.5427L1.16668 12.8261Z" fill="white"/>
<path d="M4.27825 12.8261L4.51108 13.5427L5.26453 13.5427L4.65497 13.9855L4.8878 14.7021L4.27825 14.2592L3.66869 14.7021L3.90152 13.9855L3.29197 13.5427L4.04542 13.5427L4.27825 12.8261Z" fill="white"/>
<path d="M7.38933 12.8261L7.62216 13.5427L8.37561 13.5427L7.76606 13.9855L7.99889 14.7021L7.38933 14.2592L6.77978 14.7021L7.01261 13.9855L6.40305 13.5427L7.1565 13.5427L7.38933 12.8261Z" fill="white"/>
<path d="M10.5004 12.8261L10.7332 13.5427L11.4867 13.5427L10.8771 13.9855L11.11 14.7021L10.5004 14.2592L9.89086 14.7021L10.1237 13.9855L9.51414 13.5427L10.2676 13.5427L10.5004 12.8261Z" fill="white"/>
<path d="M13.6115 12.8261L13.8443 13.5427L14.5978 13.5427L13.9882 13.9855L14.2211 14.7021L13.6115 14.2592L13.0019 14.7021L13.2348 13.9855L12.6252 13.5427L13.3787 13.5427L13.6115 12.8261Z" fill="white"/>
<path d="M16.7226 12.8261L16.9554 13.5427L17.7089 13.5427L17.0993 13.9855L17.3321 14.7021L16.7226 14.2592L16.113 14.7021L16.3459 13.9855L15.7363 13.5427L16.4898 13.5427L16.7226 12.8261Z" fill="white"/>
<path d="M19.8334 12.8261L20.0663 13.5427L20.8197 13.5427L20.2101 13.9855L20.443 14.7021L19.8334 14.2592L19.2239 14.7021L19.4567 13.9855L18.8471 13.5427L19.6006 13.5427L19.8334 12.8261Z" fill="white"/>
</g>
<defs>
<clipPath id="clip0_684_14681">
<rect width="28" height="28" rx="14" fill="white"/>
</clipPath>
</defs>
</svg>
