<svg width="28" height="28" viewBox="0 0 28 28" fill="none" xmlns="http://www.w3.org/2000/svg">
<g clip-path="url(#clip0_684_14667)">
<path d="M0 18.6648H28V28H0V18.6648Z" fill="#209C3A"/>
<path d="M0 -0.0560303H28V9.27913H0V-0.0560303Z" fill="#008EB7"/>
<path d="M18.375 5.19415L18.5714 5.79876H19.2072L18.6929 6.17243L18.8893 6.77704L18.375 6.40337L17.8607 6.77704L18.0571 6.17243L17.5428 5.79876H18.1786L18.375 5.19415Z" fill="white"/>
<path d="M16.3637 5.19415L16.5601 5.79876H17.1958L16.6815 6.17243L16.878 6.77704L16.3637 6.40337L15.8494 6.77704L16.0458 6.17243L15.5315 5.79876H16.1672L16.3637 5.19415Z" fill="white"/>
<path d="M14 5.19415L14.1964 5.79876H14.8322L14.3179 6.17243L14.5143 6.77704L14 6.40337L13.4857 6.77704L13.6821 6.17243L13.1678 5.79876H13.8036L14 5.19415Z" fill="white"/>
<path d="M15.3127 3.44415L15.5092 4.04876H16.1449L15.6306 4.42243L15.8271 5.02704L15.3127 4.65337L14.7984 5.02704L14.9949 4.42243L14.4806 4.04876H15.1163L15.3127 3.44415Z" fill="white"/>
<path d="M17.5 3.44415L17.6964 4.04876H18.3322L17.8179 4.42243L18.0143 5.02704L17.5 4.65337L16.9857 5.02704L17.1821 4.42243L16.6678 4.04876H17.3036L17.5 3.44415Z" fill="white"/>
<path d="M0 9.51562H28V18.4844H0V9.51562Z" fill="#F7BD29"/>
<path d="M12.775 7.7906C12.5936 7.82093 12.4072 7.83672 12.2172 7.83672C10.3627 7.83672 8.85938 6.33337 8.85938 4.47891C8.85938 2.62444 10.3627 1.12109 12.2172 1.12109C12.4072 1.12109 12.5936 1.13688 12.775 1.16722C11.186 1.4329 9.97502 2.81448 9.97502 4.47891C9.97502 6.14333 11.186 7.52491 12.775 7.7906Z" fill="white"/>
<path d="M0 9.13165H28V9.56915H0V9.13165Z" fill="white"/>
<path d="M0 18.3192H28V18.7567H0V18.3192Z" fill="#CE1126"/>
<path d="M0 9.56915H28V10.0067H0V9.56915Z" fill="#CE1126"/>
<path d="M0 18.7567H28V19.1942H0V18.7567Z" fill="white"/>
</g>
<defs>
<clipPath id="clip0_684_14667">
<rect width="28" height="28" rx="14" fill="white"/>
</clipPath>
</defs>
</svg>
